HIERARCHY
ROOT Hips
{
	OFFSET 0.000000 0.000000 0.000000 
	CHANNELS 6 Xposition Yposition Zposition Yrotation Zrotation Xrotation 
	JOINT Lumbar
	{
		OFFSET 0.000000 0.000000 0.000000 
		CHANNELS 3 Zrotation Xrotation Yrotation
		JOINT Neck
		{
			OFFSET 0.000000 0.445665 0.000000 
			CHANNELS 3 Zrotation Xrotation Yrotation
			End Site
			{
				OFFSET 0.000000 0.227535 0.000000 
			}
		}
		JOINT RightShoulder
		{
			OFFSET 0.019635 0.377685 0.194865 
			CHANNELS 3 Zrotation Xrotation Yrotation
			JOINT RightElbow
			{
				OFFSET 0.000000 -0.243375 0.000000 
				CHANNELS 2 Zrotation Yrotation
				JOINT RightWrist
				{
					OFFSET 0.000000 -0.264825 0.000000 
					CHANNELS 2 Zrotation Xrotation
					End Site
					{
						OFFSET 0.006600 -0.176220 0.000990 
					}
				}
			}
		}
		JOINT LeftShoulder
		{
			OFFSET 0.019635 0.377685 -0.194865 
			CHANNELS 3 Zrotation Xrotation Yrotation
			JOINT LeftElbow
			{
				OFFSET 0.000000 -0.243375 0.000000 
				CHANNELS 2 Zrotation Yrotation
				JOINT LeftWrist
				{
					OFFSET 0.000000 -0.264825 0.000000 
					CHANNELS 2 Zrotation Xrotation
					End Site
					{
						OFFSET 0.006600 -0.176220 -0.000990 
					}
				}
			}
		}
	}
	JOINT RightHip
	{
		OFFSET 0.052140 -0.069960 0.075570 
		CHANNELS 3 Zrotation Xrotation Yrotation
		JOINT RightKnee
		{
			OFFSET 0.000000 -0.402270 0.000000 
			CHANNELS 1 Zrotation
			JOINT RightAnkle
			{
				OFFSET 0.000000 -0.404085 0.000000 
				CHANNELS 3 Zrotation Xrotation Yrotation
				End Site
				{
					OFFSET 0.204105 -0.089430 0.008415 
				}
			}
		}
	}
	JOINT LeftHip
	{
		OFFSET 0.052140 -0.069960 -0.075570 
		CHANNELS 3 Zrotation Xrotation Yrotation
		JOINT LeftKnee
		{
			OFFSET 0.000000 -0.402270 0.000000 
			CHANNELS 1 Zrotation
			JOINT LeftAnkle
			{
				OFFSET 0.000000 -0.404085 0.000000 
				CHANNELS 3 Zrotation Xrotation Yrotation
				End Site
				{
					OFFSET 0.204105 -0.089430 -0.008415 
				}
			}
		}
	}
}
MOTION
Frames: 34
Frame Time: 0.02
0.00024 2e-05 4e-05 -179.50515 -39.02235 -3.83418 47.71266 3.26922 -2.41196 -13.60782 -1.73031 -1.5794 67.00803 -99.63677 55.63237 5.79214 88.69433 7.13872 0.93156 25.70795 100.03756 -55.63468 7.39966 -89.43107 7.1772 -0.06739 42.88239 -2.6411 -6.96797 -21.22606 -6.80218 -2.57572 -3.48038 47.98984 10.1389 5.74637 -27.21139 -6.95508 1.66783 3.05184
0.0002 2e-05 7e-05 -179.49687 -39.11682 -3.79984 47.81368 3.23811 -2.40627 -13.61582 -1.72714 -1.57995 67.19422 -99.62377 55.63237 5.79194 88.72765 7.13332 0.95214 25.70681 100.04466 -55.63454 7.40165 -89.46589 7.17499 -0.06521 43.00565 -2.66285 -6.87362 -21.26394 -6.80435 -2.58247 -3.48479 48.07987 10.0888 5.70403 -27.19224 -6.95556 1.66839 3.05413
0.00017 2e-05 0.00011 -179.4885 -39.21068 -3.76554 47.91407 3.20707 -2.40066 -13.6238 -1.72398 -1.5805 67.37987 -99.61083 55.63237 5.79174 88.76086 7.12792 0.97265 25.70575 100.05173 -55.6344 7.40364 -89.50061 7.17278 -0.06306 43.12815 -2.68473 -6.7804 -21.3017 -6.80648 -2.58913 -3.48915 48.16927 10.03887 5.66202 -27.17313 -6.95603 1.66892 3.0564
0.00013 1e-05 0.00014 -179.48021 -39.30478 -3.73128 48.0147 3.17604 -2.39501 -13.63177 -1.72083 -1.58105 67.56547 -99.59788 55.63238 5.79154 88.79408 7.12253 0.99317 25.70462 100.0588 -55.63427 7.40563 -89.53532 7.17059 -0.06088 43.25094 -2.70644 -6.68646 -21.33945 -6.80864 -2.59586 -3.49354 48.25895 9.98893 5.61986 -27.15404 -6.95651 1.66947 3.05868
0.0001 1e-05 0.00017 -179.47208 -39.39968 -3.69702 48.11616 3.14497 -2.38925 -13.63977 -1.71766 -1.58159 67.75164 -99.58486 55.63238 5.79134 88.8274 7.11713 1.01375 25.70338 100.06591 -55.63413 7.40762 -89.57013 7.16841 -0.05868 43.37472 -2.72795 -6.59112 -21.37733 -6.81083 -2.6027 -3.498 48.34947 9.93882 5.57725 -27.13493 -6.95698 1.67006 3.06099
6e-05 1e-05 0.0002 -179.46322 -39.4914 -3.66265 48.21434 3.11399 -2.38394 -13.64768 -1.71452 -1.58215 67.93621 -99.5721 55.63238 5.79114 88.8604 7.11173 1.03411 25.7027 100.07288 -55.634 7.40962 -89.60466 7.16613 -0.05663 43.49456 -2.75058 -6.50238 -21.41485 -6.81285 -2.60898 -3.50214 48.43653 9.88925 5.53647 -27.1158 -6.95746 1.67048 3.06319
3e-05 1e-05 0.00023 -179.45578 -39.58923 -3.6285 48.31881 3.08285 -2.37777 -13.65577 -1.71133 -1.58269 68.12369 -99.55885 55.63238 5.79094 88.89399 7.10635 1.0549 25.70087 100.08011 -55.63386 7.41159 -89.63971 7.16405 -0.05426 43.62198 -2.77094 -6.40038 -21.45303 -6.81522 -2.61639 -3.50692 48.53026 9.83868 5.49222 -27.09673 -6.95793 1.67122 3.0656
-1e-05 1e-05 0.00027 -179.44713 -39.68175 -3.59419 48.41781 3.05187 -2.37234 -13.6637 -1.70817 -1.58324 68.30867 -99.54602 55.63239 5.79074 88.92706 7.10094 1.0753 25.70016 100.08712 -55.63372 7.41359 -89.67429 7.16178 -0.0522 43.7428 -2.79338 -6.31073 -21.49062 -6.81727 -2.62273 -3.5111 48.61823 9.78899 5.45085 -27.07763 -6.95841 1.6717 3.06783
-4e-05 1e-05 0.0003 -179.43657 -39.76646 -3.55949 48.50881 3.02098 -2.36802 -13.67141 -1.70512 -1.58382 68.48995 -99.53381 55.63239 5.79055 88.95943 7.09552 1.09518 25.70058 100.09379 -55.63359 7.41561 -89.70828 7.15932 -0.0505 43.854 -2.81846 -6.2358 -21.52744 -6.81889 -2.62786 -3.51459 48.69758 9.74049 5.41427 -27.05838 -6.95889 1.67173 3.06978
-8e-05 1e-05 0.00033 -179.43569 -39.89215 -3.52645 48.6419 2.98927 -2.35792 -13.6803 -1.70166 -1.58425 68.69057 -99.51836 55.63239 5.79033 88.99563 7.09026 1.11793 25.69379 100.10223 -55.63343 7.41747 -89.7456 7.15809 -0.04665 44.01588 -2.82864 -6.07508 -21.56854 -6.82286 -2.64025 -3.52216 48.82178 9.6855 5.35394 -27.03965 -6.95934 1.67395 3.07315
-0.00011 1e-05 0.00036 -179.41523 -39.93395 -3.49032 48.68872 2.95951 -2.35962 -13.68676 -1.69893 -1.585 68.8516 -99.50952 55.63239 5.79016 89.02389 7.0846 1.13468 25.70266 100.10704 -55.63334 7.41971 -89.77595 7.15419 -0.04739 44.07385 -2.87007 -6.09598 -21.60071 -6.82195 -2.63715 -3.52108 48.8544 9.64397 5.34126 -27.02003 -6.95985 1.67181 3.07367
-0.00011 1e-05 0.00041 -179.3335 -39.72143 -3.44209 48.47515 2.93326 -2.39722 -13.68614 -1.69916 -1.58668 68.89423 -99.52072 55.63239 5.79014 89.02912 7.07818 1.13452 25.75106 100.10091 -55.63343 7.42273 -89.78665 7.14313 -0.0603 43.8185 -2.99947 -6.61443 -21.60726 -6.807 -2.59275 -3.49645 48.60778 9.64156 5.48062 -26.99631 -6.96046 1.65538 3.06515
-0.0001 2e-05 0.00045 -179.23338 -39.42881 -3.39142 48.17899 2.90926 -2.44604 -13.68316 -1.69995 -1.58866 68.89979 -99.53817 55.63239 5.79017 89.02668 7.0713 1.12844 25.81565 100.09131 -55.63359 7.42624 -89.79047 7.12924 -0.07787 43.46373 -3.15965 -7.31466 -21.60505 -6.78727 -2.53269 -3.46313 48.27405 9.65223 5.66364 -26.97198 -6.96114 1.63504 3.054
-0.0001 2e-05 0.00049 -179.14675 -39.18898 -3.34429 47.93654 2.88548 -2.48735 -13.68157 -1.6998 -1.59047 68.92755 -99.55157 55.63239 5.79018 89.02844 7.06436 1.12531 25.87533 100.08393 -55.63372 7.42967 -89.7978 7.11665 -0.09365 43.17328 -3.30455 -7.93321 -21.60759 -6.77015 -2.47891 -3.43361 47.99885 9.65548 5.8131 -26.94903 -6.9618 1.61798 3.04483
-0.0001 2e-05 0.00056 -179.03893 -38.88112 -3.28699 47.62707 2.85663 -2.53867 -13.67868 -1.70243 -1.59244 68.92902 -99.57023 55.63239 5.7902 89.02683 7.05847 1.12095 25.92546 100.07383 -55.63387 7.4323 -89.80349 7.1044 -0.1082 42.80314 -3.45576 -8.55131 -21.60688 -6.75116 -2.42821 -3.40454 47.64483 9.66503 6.02158 -26.92148 -6.96238 1.59446 3.03231
-7e-05 3e-05 0.00056 -178.97025 -38.69432 -3.25018 47.43581 2.83864 -2.57205 -13.67791 -1.69952 -1.59415 68.98096 -99.57921 55.63239 5.79021 89.03085 7.05038 1.11793 25.99837 100.06857 -55.63399 7.43697 -89.81097 7.09028 -0.12622 42.57376 -3.60013 -9.20955 -21.61083 -6.73495 -2.36789 -3.3727 47.43267 9.66449 6.1162 -26.90327 -6.96318 1.58358 3.02618
3e-05 4e-05 0.00041 -179.01944 -38.87608 -3.27149 47.60729 2.85213 -2.55073 -13.68371 -1.68018 -1.59507 69.14237 -99.56166 55.63239 5.79018 89.04852 7.03539 1.11834 26.13808 100.07775 -55.63401 7.44506 -89.82496 7.07577 -0.15418 42.77219 -3.72645 -9.96651 -21.63021 -6.72751 -2.28059 -3.3335 47.64836 9.63366 5.89779 -26.91198 -6.96426 1.60745 3.03788
0.00016 7e-05 0.00019 -179.10762 -39.17979 -3.31329 47.89764 2.87609 -2.51138 -13.69168 -1.65547 -1.59572 69.36271 -99.53385 55.63239 5.79015 89.07277 7.01834 1.1205 26.29858 100.09188 -55.634 7.45564 -89.84097 7.05854 -0.18517 43.11306 -3.84321 -10.75132 -21.65449 -6.72307 -2.18496 -3.29216 48.00715 9.59233 5.56204 -26.92994 -6.96563 1.64425 3.05613
0.00029 9e-05 -2e-05 -179.17453 -39.418 -3.34511 48.12299 2.89393 -2.48185 -13.69857 -1.63377 -1.59649 69.58216 -99.5096 55.6324 5.7901 89.09657 7.00283 1.12315 26.4445 100.10362 -55.63402 7.46639 -89.8562 7.04014 -0.21377 43.37895 -3.95891 -11.50234 -21.67624 -6.71733 -2.09589 -3.25299 48.29062 9.55493 5.27076 -26.94302 -6.96708 1.676 3.07174
0.00038 0.00011 -0.00015 -179.25594 -39.69573 -3.37977 48.39169 2.91762 -2.44592 -13.70586 -1.60943 -1.59728 69.6927 -99.49019 55.63239 5.7901 89.10963 6.98479 1.12069 26.613 100.11588 -55.63403 7.4714 -89.87078 7.03261 -0.24679 43.68431 -4.09871 -12.34965 -21.69898 -6.71114 -1.99448 -3.20843 48.61416 9.52041 5.01413 -26.95889 -6.96762 1.70464 3.08605
0.00056 0.00014 -0.00047 -179.31643 -39.92143 -3.4133 48.59955 2.93158 -2.41884 -13.71279 -1.58962 -1.59795 70.04242 -99.4582 55.6324 5.79006 89.14639 6.97149 1.12874 26.73875 100.12822 -55.63401 7.48929 -89.88707 7.00081 -0.2713 43.94297 -4.18536 -12.99973 -21.72094 -6.70666 -1.91711 -3.17475 48.88977 9.47862 4.66223 -26.97121 -6.97012 1.74225 3.10437
0.00097 0.0002 -0.00128 -179.31171 -39.97153 -3.43955 48.60957 2.91633 -2.421 -13.71898 -1.58094 -1.59833 71.05598 -99.39355 55.63241 5.78976 89.24946 6.97214 1.17061 26.74573 100.13996 -55.63392 7.5394 -89.90957 6.9112 -0.27125 44.0349 -4.12972 -13.10538 -21.73963 -6.70628 -1.90734 -3.17123 48.9947 9.40729 4.02953 -26.97109 -6.97798 1.80677 3.13472
0.00147 0.00029 -0.00228 -179.28433 -39.96582 -3.46376 48.55482 2.89093 -2.43251 -13.72467 -1.57747 -1.59859 72.30429 -99.31652 55.63239 5.78966 89.37546 6.97752 1.22193 26.70851 100.15152 -55.63368 7.60305 -89.93342 6.79557 -0.26262 44.0759 -4.02041 -13.00954 -21.7574 -6.70752 -1.92227 -3.17885 49.04746 9.33106 3.31304 -26.96715 -6.98781 1.87893 3.16844
0.00193 0.00036 -0.00321 -179.266 -39.98746 -3.48836 48.53063 2.86998 -2.43952 -13.73001 -1.57339 -1.59891 73.43463 -99.24556 55.63249 5.78934 89.48968 6.98058 1.26572 26.688 100.16294 -55.63362 7.66204 -89.95538 6.68641 -0.25804 44.14267 -3.93403 -13.00019 -21.77557 -6.70798 -1.92657 -3.1817 49.12679 9.26507 2.66566 -26.9652 -6.99675 1.94405 3.19891
0.00237 0.00045 -0.00407 -179.25414 -40.00505 -3.51607 48.50577 2.8499 -2.44723 -13.7376 -1.56178 -1.59918 74.61788 -99.17284 55.63236 5.78873 89.61089 6.98449 1.3238 26.6806 100.17556 -55.63351 7.7141 -89.98274 6.60024 -0.25275 44.20346 -3.85324 -13.01261 -21.79396 -6.70872 -1.92815 -3.18329 49.1992 9.1654 1.8849 -26.96252 -7.00565 2.02447 3.23675
0.00288 0.00051 -0.00512 -179.22309 -40.01606 -3.53639 48.46542 2.82572 -2.45561 -13.74068 -1.56705 -1.59954 75.74188 -99.10041 55.63242 5.78981 89.72159 6.9875 1.35363 26.63748 100.18544 -55.63296 7.78468 -89.99921 6.45946 -0.24708 44.26255 -3.7485 -12.93242 -21.81163 -6.7092 -1.94125 -3.19012 49.2715 9.1342 1.36145 -26.9603 -7.01512 2.07492 3.26008
0.00359 0.00051 -0.00667 -179.14269 -40.02354 -3.53794 48.39731 2.79044 -2.46661 -13.72862 -1.61845 -1.6002 76.67636 -99.03631 55.63308 5.78716 89.80728 6.98897 1.30881 26.48743 100.18882 -55.6332 7.8957 -89.98423 6.17944 -0.24081 44.33056 -3.58822 -12.63696 -21.8275 -6.70861 -1.9813 -3.20931 49.35799 9.29883 1.58796 -26.96066 -7.0256 2.0387 3.24133
0.00437 0.00049 -0.00841 -179.04381 -40.02551 -3.53178 48.31543 2.75176 -2.4776 -13.71255 -1.68647 -1.60096 77.53502 -98.97184 55.6324 5.78817 89.87867 6.98877 1.23394 26.30718 100.18914 -55.63098 8.02647 -89.95801 5.84468 -0.23484 44.39765 -3.40625 -12.25687 -21.84267 -6.70766 -2.03189 -3.23329 49.44512 9.5315 2.07329 -26.96152 -7.03661 1.9724 3.20805
0.00511 0.00048 -0.01006 -178.95452 -40.02877 -3.52834 48.23978 2.71607 -2.48655 -13.70015 -1.74644 -1.60166 78.40985 -98.90505 55.63422 5.79244 89.95163 6.98824 1.16937 26.1522 100.19026 -55.63074 8.15277 -89.9382 5.53123 -0.22969 44.46375 -3.23588 -11.92097 -21.85815 -6.70681 -2.07693 -3.25472 49.5301 9.72945 2.42843 -26.96186 -7.04744 1.92117 3.18219
0.00586 0.00048 -0.01173 -178.8598 -40.03533 -3.52824 48.16197 2.67394 -2.50401 -13.67993 -1.80889 -1.60239 79.37794 -98.84961 55.6343 5.7742 90.05066 6.99333 1.12024 25.9438 100.1942 -55.63369 8.25969 -89.91475 5.23077 -0.21983 44.5343 -3.05612 -11.55331 -21.87357 -6.70628 -2.12608 -3.27815 49.62121 9.94338 2.83401 -26.96327 -7.05806 1.8643 3.15302
0.00661 0.00046 -0.01341 -178.77186 -40.03434 -3.51927 48.08632 2.64453 -2.50416 -13.67504 -1.86977 -1.6031 80.12089 -98.76899 55.62983 5.80586 90.08612 6.9852 1.0305 25.84404 100.19113 -55.62084 8.41256 -89.89394 4.89205 -0.22043 44.59578 -2.89166 -11.23505 -21.88901 -6.70497 -2.16879 -3.29836 49.70034 10.14008 3.19662 -26.96266 -7.06921 1.81195 3.12723
0.00732 0.00042 -0.01511 -178.71076 -40.01469 -3.48849 48.01918 2.65126 -2.4518 -13.71339 -1.92467 -1.60373 80.31353 -98.62999 55.64378 5.95951 90.00073 6.95106 0.8473 26.01759 100.17263 -55.63804 8.67898 -89.90301 4.44919 -0.2457 44.63421 -2.7734 -11.06838 -21.90426 -6.70182 -2.19144 -3.30868 49.74654 10.27405 3.38198 -26.95613 -7.08174 1.77923 3.11438
0.00802 0.00037 -0.01682 -178.65652 -39.98772 -3.44887 47.95515 2.67092 -2.38288 -13.76726 -1.97689 -1.60434 80.25051 -98.46163 55.62218 6.16842 89.8447 6.90251 0.62297 26.30795 100.1464 -55.62564 8.99303 -89.91186 3.9724 -0.28213 44.66343 -2.67183 -10.95633 -21.91963 -6.69787 -2.20705 -3.3155 49.78085 10.38807 3.51481 -26.9476 -7.09476 1.7521 3.1054
0.00872 0.00033 -0.01852 -178.59696 -39.9638 -3.4128 47.8905 2.68457 -2.32455 -13.81411 -2.02876 -1.60496 80.29494 -98.30208 55.62887 6.3588 89.68414 6.85303 0.40891 26.56753 100.12184 -55.57903 9.2901 -89.90724 3.51867 -0.31643 44.69595 -2.56377 -10.82398 -21.93521 -6.69414 -2.22554 -3.32374 49.82065 10.51028 3.66895 -26.94014 -7.10752 1.72253 3.0946
